<svg width="28" height="16" viewBox="0 0 28 16" fill="none" xmlns="http://www.w3.org/2000/svg">
<path d="M26.856 3.27463C26.6668 3.05073 26.3831 2.93877 26.0993 2.93877H7.40201L6.99212 1.76326C6.61376 0.699708 5.54174 0 4.28054 0H1.34824C0.812234 0 0.402344 0.363848 0.402344 0.83965C0.402344 1.31545 0.812234 1.6793 1.34824 1.6793H4.28054C4.69043 1.6793 5.06879 1.90321 5.19491 2.26705L8.63168 11.895L8.60015 11.979C8.19026 12.8466 8.28485 13.8262 8.85239 14.6379C9.45146 15.4216 10.4289 15.8974 11.5009 15.8974H24.4282C24.9642 15.8974 25.3741 15.5335 25.3741 15.0577C25.3741 14.5819 24.9642 14.2181 24.4282 14.2181H11.5009C11.0595 14.2181 10.6811 14.0222 10.4604 13.7143C10.2397 13.4064 10.1766 13.0146 10.3343 12.6787H21.4013C22.9148 12.6787 24.239 11.8111 24.712 10.5236L27.0137 4.03032C27.0767 3.77842 27.0137 3.49854 26.856 3.27463ZM21.3698 10.9994H10.2712L8.00108 4.61807H24.8066L22.9148 10.0198C22.6625 10.6076 22.0635 10.9994 21.3698 10.9994Z" fill="#9758A6"/>
</svg>
