<?xml version='1.0' encoding='utf-8'?>
<!DOCTYPE svg PUBLIC '-//W3C//DTD SVG 1.1//EN' 'http://www.w3.org/Graphics/SVG/1.1/DTD/svg11.dtd'>
<!-- Uploaded to: SVG Repo, www.svgrepo.com, Generator: SVG Repo Mixer Tools -->
<svg fill="#000000" version="1.1" xmlns="http://www.w3.org/2000/svg" viewBox="0 0 512 512" xmlns:xlink="http://www.w3.org/1999/xlink" enable-background="new 0 0 512 512">
  <g>
    <g>
      <rect width="109.2" x="82.3" y="96.9" height="20.8"/>
      <rect width="109.2" x="82.3" y="158.2" height="20.8"/>
      <rect width="256.9" x="82.3" y="218.6" height="20.8"/>
      <rect width="256.9" x="82.3" y="278.9" height="20.8"/>
      <path d="m487.9,249.7c-16.3-16.3-42.7-16.3-59,0l-22.1,22.1v-112.5c0-3.1-1-5.2-3.1-7.3l-137.3-137.3c-2.1-2.1-4.2-3.1-7.3-3.1h-237.2c-6.2,0-10.4,4.2-10.4,10.4v468.1c0,6.2 4.2,10.4 10.4,10.4h374.5c6.2,0 10.4-4.2 10.4-11.4v-99.3l81.1-81.1c16.3-16.3 16.3-42.7 0-59zm-218.4-202.8l101.9,101.9h-101.9v-101.9zm116.5,432.8h-353.7v-447.3h216.4v126.9c0,6.2 4.2,10.4 10.4,10.4h126.9v122.9l-99.2,99.2-8.8,67.8 67.8-8.8 40.3-40.3v69.2zm87.2-186.1l-136.8,136.8-35,5.7 5.7-35 136.8-136.8c8.1-8.1 21.2-8.1 29.3,0 8.1,8.1 8.1,21.2 0,29.3z"/>
    </g>
  </g>
</svg>