<svg width="16" height="16" viewBox="0 0 16 16" fill="none" xmlns="http://www.w3.org/2000/svg">
<path d="M1 15.0635H15" stroke="white" stroke-width="1.2" stroke-linecap="round" stroke-linejoin="round"/>
<path d="M1 4.25164V5.02391C1 5.63836 1.24583 6.22764 1.68342 6.66212C2.121 7.0966 2.71449 7.34069 3.33333 7.34069C3.95217 7.34069 4.54566 7.0966 4.98325 6.66212C5.42083 6.22764 5.66667 5.63836 5.66667 5.02391M1 4.25164H5.66667V5.02391M1 4.25164H15M1 4.25164L2.55556 1.1626H13.4444L15 4.25164M5.66667 5.02391C5.66667 5.63836 5.9125 6.22764 6.35008 6.66212C6.78767 7.0966 7.38116 7.34069 8 7.34069C8.61884 7.34069 9.21233 7.0966 9.64992 6.66212C10.0875 6.22764 10.3333 5.63836 10.3333 5.02391C10.3333 5.63836 10.5792 6.22764 11.0168 6.66212C11.4543 7.0966 12.0478 7.34069 12.6667 7.34069C13.2855 7.34069 13.879 7.0966 14.3166 6.66212C14.7542 6.22764 15 5.63836 15 5.02391V4.25164" stroke="white" stroke-width="1.2" stroke-linecap="round" stroke-linejoin="round"/>
<path d="M2.55566 15.0633V7.22485" stroke="white" stroke-width="1.2" stroke-linecap="round" stroke-linejoin="round"/>
<path d="M13.4443 15.0633V7.22485" stroke="white" stroke-width="1.2" stroke-linecap="round" stroke-linejoin="round"/>
<path d="M5.6665 15.0633V11.9742C5.6665 11.5646 5.83039 11.1717 6.12212 10.8821C6.41384 10.5924 6.8095 10.4297 7.22206 10.4297H8.77761C9.19017 10.4297 9.58584 10.5924 9.87756 10.8821C10.1693 11.1717 10.3332 11.5646 10.3332 11.9742V15.0633" stroke="white" stroke-width="1.2" stroke-linecap="round" stroke-linejoin="round"/>
</svg>
