<svg width="15" height="18" viewBox="0 0 15 18" fill="none" xmlns="http://www.w3.org/2000/svg">
<path d="M13.9923 14.5207L13.2601 5.29435C13.2144 4.69994 12.7118 4.23429 12.1156 4.23429H10.6694V4.16929C10.6694 2.42173 9.24763 1 7.50007 1C5.7525 1 4.33078 2.42173 4.33078 4.16929V4.23429H2.88455C2.28838 4.23429 1.78565 4.69991 1.74018 5.2931L1.00775 14.522C0.951066 15.2609 1.20741 15.9965 1.711 16.5402C2.2146 17.0839 2.92849 17.3958 3.6696 17.3958H11.3305C12.0716 17.3958 12.7855 17.084 13.2891 16.5402C13.7927 15.9965 14.049 15.2609 13.9923 14.5207ZM5.29115 4.16929C5.29115 2.95129 6.2821 1.96037 7.50007 1.96037C8.71803 1.96037 9.70898 2.95132 9.70898 4.16929V4.23429H5.29115V4.16929ZM12.5845 15.8877C12.2573 16.2409 11.812 16.4354 11.3305 16.4354H3.66963C3.18813 16.4354 2.74282 16.2409 2.41561 15.8877C2.08843 15.5344 1.92851 15.0755 1.96527 14.5967L2.69763 5.36778C2.70506 5.27069 2.78717 5.19467 2.88455 5.19467H4.33078V6.37744C4.33078 6.64262 4.54578 6.85762 4.81096 6.85762C5.07615 6.85762 5.29115 6.64262 5.29115 6.37744V5.19467H9.70898V6.37744C9.70898 6.64262 9.92399 6.85762 10.1892 6.85762C10.4544 6.85762 10.6694 6.64262 10.6694 6.37744V5.19467H12.1156C12.213 5.19467 12.2951 5.27072 12.3026 5.36906L13.0348 14.5954C13.0717 15.0755 12.9117 15.5344 12.5845 15.8877Z" fill="white" stroke="white" stroke-width="0.4"/>
</svg>
